<mxfile host="app.diagrams.net" modified="2023-05-17T12:05:54.612Z" agent="Mozilla/5.0 (Windows NT 10.0; Win64; x64) AppleWebKit/537.36 (KHTML, like Gecko) Chrome/113.0.0.0 Safari/537.36" version="21.2.1" etag="stSUY-sn9dtBELnu-J9t" type="github">
  <diagram name="Page-1" id="D_YBZWRSk5i-QKfcxI-i">
    <mxGraphModel>
      <root>
        <mxCell id="0" />
        <mxCell id="1" parent="0" />
      </root>
    </mxGraphModel>
  </diagram>
</mxfile>
